# xmcd CD database file
#
# Track frame offsets:
#	150
#	8571
#	30515
#	39492
#	58802
#	74175
#	80770
#	107731
#	121219
#	138436
#	153363
#	166352
#	189042
#	200700
#
# Disc length: 2809 seconds
#
# Revision: 2
# Processed by: cddbd v1.4PL0 Copyright (c) Steve Scherf et al.
# Submitted via: CDex 1.50beta10
#
DISCID=bd0af70e
DTITLE=Koslowski - Arschloch
DYEAR=1992
DGENRE=Blues
TTITLE0=Fackel nicht so lange
TTITLE1=Wieder im Revier
TTITLE2=Bei Siggi um 9
TTITLE3=Eitelkeit
TTITLE4=Der Brummer
TTITLE5=Koslowski Beat
TTITLE6=Sp tschicht
TTITLE7=Hei er Stoff
TTITLE8=Arschloch
TTITLE9=Ich hab' sie alle gehabt
TTITLE10=Auf Trabbel
TTITLE11=Alibi Bar
TTITLE12=Auf Video
TTITLE13=Rote Strapse
EXTD=YEAR: 1992
EXTT0=
EXTT1=
EXTT2=
EXTT3=
EXTT4=
EXTT5=
EXTT6=
EXTT7=
EXTT8=
EXTT9=
EXTT10=
EXTT11=
EXTT12=
EXTT13=
PLAYORDER=
